<svg xmlns="http://www.w3.org/2000/svg" xmlns:xlink="http://www.w3.org/1999/xlink" width="800" zoomAndPan="magnify" viewBox="0 0 600 374.999991" height="500" preserveAspectRatio="xMidYMid meet" version="1.0"><defs><g/></defs><g fill="#73a9ad" fill-opacity="1"><g transform="translate(29.036737, 281.439106)"><g><path d="M 124.53125 -2.375 C 124.789062 -1.851562 124.722656 -1.328125 124.328125 -0.796875 C 123.929688 -0.265625 123.40625 0 122.75 0 L 95.375 0 C 94.457031 0 93.863281 -0.394531 93.59375 -1.1875 L 62.265625 -89.625 L 31.328125 -1.1875 C 31.191406 -0.394531 30.53125 0 29.34375 0 L 2.1875 0 C 1.257812 0 0.628906 -0.265625 0.296875 -0.796875 C -0.0351562 -1.328125 -0.0664062 -1.851562 0.203125 -2.375 L 60.28125 -157.453125 C 60.539062 -158.242188 61.203125 -158.640625 62.265625 -158.640625 C 63.328125 -158.640625 63.988281 -158.242188 64.25 -157.453125 Z M 124.53125 -2.375 "/></g></g></g><g fill="#73a9ad" fill-opacity="1"><g transform="translate(170.805888, 281.439106)"><g><path d="M 108.265625 -2.578125 C 108.535156 -1.921875 108.503906 -1.328125 108.171875 -0.796875 C 107.835938 -0.265625 107.273438 0 106.484375 0 L 78.125 0 C 77.070312 0 76.410156 -0.394531 76.140625 -1.1875 L 47.1875 -64.046875 L 30.140625 -64.046875 L 30.140625 -1.78125 C 30.140625 -0.59375 29.410156 0 27.953125 0 L 1.984375 0 C 0.660156 0 0 -0.59375 0 -1.78125 L 0 -93.203125 L 53.34375 -93.203125 C 54.925781 -93.203125 57.039062 -93.332031 59.6875 -93.59375 C 62.332031 -93.863281 64.941406 -94.59375 67.515625 -95.78125 C 70.097656 -96.96875 72.28125 -98.785156 74.0625 -101.234375 C 75.84375 -103.679688 76.734375 -107.082031 76.734375 -111.4375 C 76.734375 -115.800781 75.773438 -119.238281 73.859375 -121.75 C 71.941406 -124.257812 69.59375 -126.078125 66.8125 -127.203125 C 64.039062 -128.328125 61.398438 -129.054688 58.890625 -129.390625 C 56.378906 -129.722656 54.53125 -129.890625 53.34375 -129.890625 L 0 -129.890625 L 0 -156.859375 C 0 -158.046875 0.660156 -158.640625 1.984375 -158.640625 L 53.34375 -158.640625 C 55.195312 -158.640625 58.171875 -158.472656 62.265625 -158.140625 C 66.359375 -157.804688 70.953125 -156.910156 76.046875 -155.453125 C 81.140625 -154.003906 86.03125 -151.628906 90.71875 -148.328125 C 95.414062 -145.023438 99.28125 -140.394531 102.3125 -134.4375 C 105.351562 -128.488281 106.875 -120.820312 106.875 -111.4375 C 106.875 -103.375 105.550781 -96.53125 102.90625 -90.90625 C 100.269531 -85.289062 96.738281 -80.695312 92.3125 -77.125 C 87.882812 -73.5625 83.023438 -70.789062 77.734375 -68.8125 C 82.753906 -57.570312 87.875 -46.460938 93.09375 -35.484375 C 98.320312 -24.515625 103.378906 -13.546875 108.265625 -2.578125 Z M 108.265625 -2.578125 "/></g></g></g><g fill="#73a9ad" fill-opacity="1"><g transform="translate(295.721631, 281.439106)"><g><path d="M 126.515625 -2.96875 C 127.171875 -2.175781 127.300781 -1.484375 126.90625 -0.890625 C 126.507812 -0.296875 125.785156 0 124.734375 0 L 90.625 0 C 89.832031 0 89.238281 -0.195312 88.84375 -0.59375 L 42.640625 -57.703125 C 41.972656 -57.046875 40.484375 -55.425781 38.171875 -52.84375 C 35.859375 -50.269531 33.082031 -47.164062 29.84375 -43.53125 C 26.601562 -39.894531 23.265625 -36.125 19.828125 -32.21875 C 16.390625 -28.320312 13.148438 -24.65625 10.109375 -21.21875 C 7.066406 -17.78125 4.617188 -15.003906 2.765625 -12.890625 C 0.921875 -10.773438 0 -9.71875 0 -9.71875 L 0 -156.859375 C 0 -158.046875 0.726562 -158.640625 2.1875 -158.640625 L 28.359375 -158.640625 C 29.679688 -158.640625 30.34375 -158.046875 30.34375 -156.859375 L 30.34375 -84.671875 L 90.03125 -158.046875 C 90.425781 -158.441406 91.019531 -158.640625 91.8125 -158.640625 L 124.140625 -158.640625 C 125.191406 -158.640625 125.914062 -158.304688 126.3125 -157.640625 C 126.707031 -156.984375 126.578125 -156.320312 125.921875 -155.65625 L 62.859375 -77.9375 Z M 126.515625 -2.96875 "/></g></g></g><g fill="#73a9ad" fill-opacity="1"><g transform="translate(440.068389, 281.439106)"><g><path d="M 124.53125 -2.375 C 124.789062 -1.851562 124.722656 -1.328125 124.328125 -0.796875 C 123.929688 -0.265625 123.40625 0 122.75 0 L 95.375 0 C 94.457031 0 93.863281 -0.394531 93.59375 -1.1875 L 62.265625 -89.625 L 31.328125 -1.1875 C 31.191406 -0.394531 30.53125 0 29.34375 0 L 2.1875 0 C 1.257812 0 0.628906 -0.265625 0.296875 -0.796875 C -0.0351562 -1.328125 -0.0664062 -1.851562 0.203125 -2.375 L 60.28125 -157.453125 C 60.539062 -158.242188 61.203125 -158.640625 62.265625 -158.640625 C 63.328125 -158.640625 63.988281 -158.242188 64.25 -157.453125 Z M 124.53125 -2.375 "/></g></g></g></svg>