<svg xmlns="http://www.w3.org/2000/svg" xmlns:xlink="http://www.w3.org/1999/xlink" width="800" zoomAndPan="magnify" viewBox="0 0 600 374.999991" height="500" preserveAspectRatio="xMidYMid meet" version="1.0"><defs><g/></defs><g fill="#f8fafc" fill-opacity="1"><g transform="translate(3.109724, 286.124981)"><g><path d="M 124.546875 -2.375 C 124.804688 -1.851562 124.738281 -1.328125 124.34375 -0.796875 C 123.945312 -0.265625 123.414062 0 122.75 0 L 95.390625 0 C 94.460938 0 93.867188 -0.394531 93.609375 -1.1875 L 62.265625 -89.640625 L 31.328125 -1.1875 C 31.203125 -0.394531 30.539062 0 29.34375 0 L 2.1875 0 C 1.257812 0 0.628906 -0.265625 0.296875 -0.796875 C -0.0351562 -1.328125 -0.0664062 -1.851562 0.203125 -2.375 L 60.28125 -157.453125 C 60.550781 -158.253906 61.210938 -158.65625 62.265625 -158.65625 C 63.328125 -158.65625 63.988281 -158.253906 64.25 -157.453125 Z M 124.546875 -2.375 "/></g></g></g><g fill="#f8fafc" fill-opacity="1"><g transform="translate(162.158238, 286.124981)"><g><path d="M 108.28125 -2.578125 C 108.539062 -1.921875 108.503906 -1.328125 108.171875 -0.796875 C 107.847656 -0.265625 107.289062 0 106.5 0 L 78.140625 0 C 77.078125 0 76.414062 -0.394531 76.15625 -1.1875 L 47.203125 -64.0625 L 30.140625 -64.0625 L 30.140625 -1.78125 C 30.140625 -0.59375 29.414062 0 27.96875 0 L 1.984375 0 C 0.660156 0 0 -0.59375 0 -1.78125 L 0 -93.203125 L 53.34375 -93.203125 C 54.925781 -93.203125 57.039062 -93.332031 59.6875 -93.59375 C 62.332031 -93.863281 64.941406 -94.59375 67.515625 -95.78125 C 70.097656 -96.96875 72.28125 -98.785156 74.0625 -101.234375 C 75.851562 -103.679688 76.75 -107.085938 76.75 -111.453125 C 76.75 -115.816406 75.789062 -119.253906 73.875 -121.765625 C 71.957031 -124.273438 69.609375 -126.09375 66.828125 -127.21875 C 64.054688 -128.34375 61.410156 -129.066406 58.890625 -129.390625 C 56.378906 -129.722656 54.53125 -129.890625 53.34375 -129.890625 L 0 -129.890625 L 0 -156.859375 C 0 -158.054688 0.660156 -158.65625 1.984375 -158.65625 L 53.34375 -158.65625 C 55.195312 -158.65625 58.171875 -158.488281 62.265625 -158.15625 C 66.367188 -157.820312 70.960938 -156.925781 76.046875 -155.46875 C 81.140625 -154.019531 86.03125 -151.640625 90.71875 -148.328125 C 95.414062 -145.023438 99.285156 -140.398438 102.328125 -134.453125 C 105.367188 -128.503906 106.890625 -120.835938 106.890625 -111.453125 C 106.890625 -103.390625 105.566406 -96.546875 102.921875 -90.921875 C 100.273438 -85.304688 96.738281 -80.710938 92.3125 -77.140625 C 87.882812 -73.578125 83.023438 -70.800781 77.734375 -68.8125 C 82.765625 -57.570312 87.890625 -46.460938 93.109375 -35.484375 C 98.328125 -24.515625 103.382812 -13.546875 108.28125 -2.578125 Z M 108.28125 -2.578125 "/></g></g></g><g fill="#f8fafc" fill-opacity="1"><g transform="translate(304.350016, 286.124981)"><g><path d="M 126.515625 -2.96875 C 127.179688 -2.175781 127.316406 -1.484375 126.921875 -0.890625 C 126.523438 -0.296875 125.796875 0 124.734375 0 L 90.625 0 C 89.832031 0 89.238281 -0.195312 88.84375 -0.59375 L 42.640625 -57.703125 C 41.972656 -57.046875 40.484375 -55.425781 38.171875 -52.84375 C 35.859375 -50.269531 33.082031 -47.164062 29.84375 -43.53125 C 26.601562 -39.894531 23.265625 -36.125 19.828125 -32.21875 C 16.390625 -28.320312 13.148438 -24.65625 10.109375 -21.21875 C 7.066406 -17.78125 4.617188 -15.003906 2.765625 -12.890625 C 0.921875 -10.773438 0 -9.71875 0 -9.71875 L 0 -156.859375 C 0 -158.054688 0.726562 -158.65625 2.1875 -158.65625 L 28.359375 -158.65625 C 29.679688 -158.65625 30.34375 -158.054688 30.34375 -156.859375 L 30.34375 -84.671875 L 90.03125 -158.0625 C 90.425781 -158.457031 91.019531 -158.65625 91.8125 -158.65625 L 124.140625 -158.65625 C 125.203125 -158.65625 125.929688 -158.320312 126.328125 -157.65625 C 126.722656 -157 126.585938 -156.335938 125.921875 -155.671875 L 62.859375 -77.9375 Z M 126.515625 -2.96875 "/></g></g></g><g fill="#f8fafc" fill-opacity="1"><g transform="translate(465.976611, 286.124981)"><g><path d="M 124.546875 -2.375 C 124.804688 -1.851562 124.738281 -1.328125 124.34375 -0.796875 C 123.945312 -0.265625 123.414062 0 122.75 0 L 95.390625 0 C 94.460938 0 93.867188 -0.394531 93.609375 -1.1875 L 62.265625 -89.640625 L 31.328125 -1.1875 C 31.203125 -0.394531 30.539062 0 29.34375 0 L 2.1875 0 C 1.257812 0 0.628906 -0.265625 0.296875 -0.796875 C -0.0351562 -1.328125 -0.0664062 -1.851562 0.203125 -2.375 L 60.28125 -157.453125 C 60.550781 -158.253906 61.210938 -158.65625 62.265625 -158.65625 C 63.328125 -158.65625 63.988281 -158.253906 64.25 -157.453125 Z M 124.546875 -2.375 "/></g></g></g></svg>