<svg xmlns="http://www.w3.org/2000/svg" xmlns:xlink="http://www.w3.org/1999/xlink" width="500" zoomAndPan="magnify" viewBox="0 0 375 374.999991" height="500" preserveAspectRatio="xMidYMid meet" version="1.0"><defs><clipPath id="f73dbe83cb"><path d="M 38.136719 18 L 336.636719 18 L 336.636719 357 L 38.136719 357 Z M 38.136719 18 " clip-rule="nonzero"/></clipPath></defs><g clip-path="url(#f73dbe83cb)"><path fill="#e44d26" d="M 65.234375 322.78125 L 38.050781 18.019531 L 336.722656 18.019531 L 309.519531 322.738281 L 187.195312 356.621094 Z M 65.234375 322.78125 " fill-opacity="1" fill-rule="nonzero"/></g><path fill="#f16529" d="M 286.21875 303.332031 L 309.476562 42.9375 L 187.386719 42.9375 L 187.386719 330.730469 Z M 286.21875 303.332031 " fill-opacity="1" fill-rule="nonzero"/><path fill="#ebebeb" d="M 187.261719 80.3125 L 93.625 80.3125 L 103.710938 193.347656 L 187.386719 193.347656 L 187.386719 155.972656 L 137.910156 155.972656 L 134.492188 117.699219 L 187.386719 117.699219 L 187.386719 80.3125 Z M 187.386719 252.921875 L 187.226562 252.964844 L 145.585938 241.726562 L 142.941406 211.917969 L 105.382812 211.917969 L 110.625 270.601562 L 187.21875 291.765625 L 187.386719 291.714844 Z M 187.386719 252.921875 " fill-opacity="1" fill-rule="nonzero"/><path fill="#ffffff" d="M 187.261719 193.347656 L 233.304688 193.347656 L 229.070312 241.8125 L 187.367188 253.058594 L 187.367188 291.945312 L 264.023438 270.710938 L 274.289062 155.949219 L 187.386719 155.949219 Z M 280.027344 90.34375 L 280.917969 80.3125 L 187.238281 80.3125 L 187.238281 117.6875 L 277.550781 117.6875 L 278.292969 109.285156 Z M 280.027344 90.34375 " fill-opacity="1" fill-rule="nonzero"/></svg>