<svg xmlns="http://www.w3.org/2000/svg" xmlns:xlink="http://www.w3.org/1999/xlink" width="500" zoomAndPan="magnify" viewBox="0 0 375 374.999991" height="500" preserveAspectRatio="xMidYMid meet" version="1.0"><defs><clipPath id="f4b5869cf9"><path d="M 167 219 L 229 219 L 229 340.050781 L 167 340.050781 Z M 167 219 " clip-rule="nonzero"/></clipPath><clipPath id="99f25667ae"><path d="M 82 34.800781 L 305 34.800781 L 305 100 L 82 100 Z M 82 34.800781 " clip-rule="nonzero"/></clipPath></defs><g clip-path="url(#f4b5869cf9)"><path fill="#f8fafc" d="M 175.566406 340.191406 C 173.910156 340.191406 172.253906 339.699219 170.84375 338.65625 C 167.285156 336.019531 166.550781 331.050781 169.125 327.496094 L 174.09375 320.6875 C 194.457031 293.023438 207.828125 260.394531 212.734375 226.351562 C 213.347656 221.996094 217.398438 218.929688 221.8125 219.605469 C 226.167969 220.21875 229.234375 224.265625 228.558594 228.683594 C 223.285156 265.300781 208.871094 300.382812 186.976562 330.191406 L 182.007812 337 C 180.410156 339.085938 178.019531 340.191406 175.566406 340.191406 Z M 175.566406 340.191406 " fill-opacity="1" fill-rule="nonzero"/></g><path fill="#f8fafc" d="M 103.066406 313.753906 C 101.042969 313.753906 99.082031 313.019531 97.484375 311.484375 C 94.296875 308.417969 94.234375 303.328125 97.300781 300.199219 L 100.796875 296.582031 C 128.523438 267.9375 143.792969 230.214844 143.792969 190.410156 L 143.792969 189.304688 C 143.792969 165.078125 162.992188 145.019531 186.546875 144.589844 C 198.382812 144.46875 209.484375 148.824219 217.886719 157.042969 C 226.289062 165.324219 230.953125 176.363281 230.953125 188.140625 L 230.953125 196.296875 C 230.953125 200.714844 227.394531 204.269531 222.980469 204.269531 C 218.5625 204.269531 215.003906 200.714844 215.003906 196.296875 L 215.003906 188.140625 C 215.003906 180.65625 212.0625 173.664062 206.726562 168.449219 C 201.386719 163.238281 194.335938 160.355469 186.914062 160.539062 C 172.007812 160.785156 159.863281 173.726562 159.863281 189.304688 L 159.863281 190.410156 C 159.863281 234.449219 142.996094 276.09375 112.390625 307.746094 L 108.894531 311.363281 C 107.238281 312.957031 105.152344 313.753906 103.066406 313.753906 Z M 103.066406 313.753906 " fill-opacity="1" fill-rule="nonzero"/><path fill="#f8fafc" d="M 222.917969 335.101562 C 221.566406 335.101562 220.21875 334.792969 218.992188 334.058594 C 215.128906 331.910156 213.777344 327.003906 215.988281 323.140625 L 222.671875 311.300781 C 241.5625 277.8125 251.5625 239.785156 251.5625 201.328125 L 251.5625 188.140625 C 251.5625 174.644531 247.390625 161.703125 239.539062 150.785156 C 236.964844 147.230469 237.761719 142.199219 241.378906 139.621094 C 244.9375 137.046875 249.964844 137.84375 252.542969 141.464844 C 262.355469 155.140625 267.570312 171.273438 267.570312 188.199219 L 267.570312 201.449219 C 267.570312 242.667969 256.898438 283.394531 236.59375 319.273438 L 229.910156 331.113281 C 228.375 333.628906 225.675781 335.101562 222.917969 335.101562 Z M 222.917969 335.101562 " fill-opacity="1" fill-rule="nonzero"/><path fill="#f8fafc" d="M 113.125 223.46875 C 112.636719 223.46875 112.082031 223.40625 111.59375 223.347656 C 107.238281 222.488281 104.417969 218.316406 105.277344 213.960938 C 106.5625 207.460938 107.175781 200.773438 107.175781 194.148438 L 107.175781 189.855469 C 107.175781 146.246094 141.832031 109.570312 184.398438 108.035156 C 195.5 107.605469 206.355469 109.507812 216.601562 113.492188 C 220.710938 115.089844 222.734375 119.75 221.136719 123.859375 C 219.542969 127.96875 214.882812 129.992188 210.773438 128.398438 C 202.554688 125.148438 193.90625 123.738281 184.949219 124.042969 C 150.847656 125.269531 123.125 154.773438 123.125 189.917969 L 123.125 194.210938 C 123.125 201.878906 122.386719 209.546875 120.917969 217.027344 C 120.242188 220.832031 116.867188 223.46875 113.125 223.46875 Z M 113.125 223.46875 " fill-opacity="1" fill-rule="nonzero"/><path fill="#f8fafc" d="M 76.632812 288.179688 C 74.792969 288.179688 72.890625 287.503906 71.417969 286.214844 C 68.105469 283.332031 67.738281 278.242188 70.621094 274.929688 L 81.84375 261.988281 C 87.367188 255.609375 92.089844 248.617188 95.953125 241.070312 C 97.976562 237.148438 102.761719 235.550781 106.6875 237.574219 C 110.613281 239.601562 112.207031 244.382812 110.183594 248.308594 C 105.765625 256.957031 100.308594 265.117188 93.929688 272.414062 L 82.640625 285.355469 C 81.046875 287.195312 78.839844 288.179688 76.632812 288.179688 Z M 76.632812 288.179688 " fill-opacity="1" fill-rule="nonzero"/><path fill="#f8fafc" d="M 274.5 312.039062 C 273.398438 312.039062 272.292969 311.792969 271.1875 311.300781 C 267.140625 309.460938 265.363281 304.738281 267.203125 300.691406 C 281.0625 270.023438 288.054688 237.453125 288.054688 203.78125 C 288.054688 199.363281 291.613281 195.804688 296.03125 195.804688 C 300.445312 195.804688 304.003906 199.363281 304.003906 203.78125 C 304.003906 239.722656 296.519531 274.5 281.738281 307.253906 C 280.449219 310.320312 277.566406 312.039062 274.5 312.039062 Z M 274.5 312.039062 " fill-opacity="1" fill-rule="nonzero"/><path fill="#f8fafc" d="M 293.945312 174.585938 C 290.203125 174.585938 286.890625 171.945312 286.09375 168.144531 C 276.894531 122.265625 236.164062 88.285156 189.304688 87.425781 C 184.890625 87.363281 181.394531 83.683594 181.453125 79.269531 C 181.515625 74.851562 185.195312 71.417969 189.613281 71.417969 C 243.894531 72.460938 291.0625 111.835938 301.796875 165.015625 C 302.652344 169.371094 299.832031 173.542969 295.539062 174.460938 C 294.988281 174.523438 294.433594 174.585938 293.945312 174.585938 Z M 293.945312 174.585938 " fill-opacity="1" fill-rule="nonzero"/><path fill="#f8fafc" d="M 57.863281 256.589844 C 56.269531 256.589844 54.613281 256.097656 53.203125 255.117188 C 49.582031 252.542969 48.785156 247.574219 51.363281 243.953125 L 62.09375 228.988281 C 67.675781 221.199219 70.621094 212 70.621094 202.371094 L 70.621094 190.285156 C 70.621094 139.195312 104.234375 92.578125 152.320312 76.9375 C 156.492188 75.589844 161.03125 77.859375 162.378906 82.089844 C 163.726562 86.261719 161.457031 90.800781 157.226562 92.148438 C 115.640625 105.644531 86.566406 146 86.566406 190.285156 L 86.566406 202.371094 C 86.566406 215.3125 82.582031 227.761719 75.035156 238.3125 L 64.304688 253.277344 C 62.769531 255.425781 60.316406 256.589844 57.863281 256.589844 Z M 57.863281 256.589844 " fill-opacity="1" fill-rule="nonzero"/><path fill="#f8fafc" d="M 41.976562 207.890625 C 37.5625 207.890625 34.003906 204.332031 34.003906 199.914062 L 34.003906 188.140625 C 34.003906 158.207031 42.652344 129.195312 58.96875 104.292969 C 61.359375 100.613281 66.328125 99.570312 70.007812 101.960938 C 73.6875 104.355469 74.730469 109.324219 72.339844 113.066406 C 57.742188 135.390625 50.011719 161.335938 50.011719 188.140625 L 50.011719 199.855469 C 50.011719 204.269531 46.394531 207.890625 41.976562 207.890625 Z M 41.976562 207.890625 " fill-opacity="1" fill-rule="nonzero"/><g clip-path="url(#99f25667ae)"><path fill="#f8fafc" d="M 296.089844 99.753906 C 293.882812 99.753906 291.675781 98.835938 290.078125 97.054688 C 264.074219 67.675781 226.597656 50.808594 187.34375 50.808594 C 153.363281 50.808594 120.730469 63.320312 95.523438 86.015625 C 92.210938 88.960938 87.179688 88.714844 84.238281 85.402344 C 81.292969 82.089844 81.539062 77.058594 84.851562 74.117188 C 112.941406 48.785156 149.375 34.800781 187.34375 34.800781 C 231.136719 34.800781 272.96875 53.628906 302.101562 86.445312 C 305.046875 89.757812 304.738281 94.785156 301.425781 97.730469 C 299.894531 99.078125 297.992188 99.753906 296.089844 99.753906 Z M 296.089844 99.753906 " fill-opacity="1" fill-rule="nonzero"/></g><path fill="#f8fafc" d="M 328.84375 239.539062 C 328.414062 239.539062 327.925781 239.476562 327.496094 239.417969 C 323.140625 238.679688 320.195312 234.507812 320.933594 230.214844 C 324.980469 206.601562 324.671875 188.507812 324.671875 188.324219 C 324.671875 166.121094 319.644531 145.082031 309.644531 125.636719 C 307.621094 121.710938 309.15625 116.867188 313.140625 114.84375 C 317.066406 112.820312 321.914062 114.351562 323.875 118.339844 C 335.039062 140.050781 340.683594 163.542969 340.683594 188.140625 C 340.683594 188.753906 340.988281 207.644531 336.695312 232.851562 C 336.019531 236.777344 332.648438 239.539062 328.84375 239.539062 Z M 328.84375 239.539062 " fill-opacity="1" fill-rule="nonzero"/><path fill="#f8fafc" d="M 134.164062 330.378906 C 131.957031 330.378906 129.75 329.457031 128.152344 327.679688 C 125.210938 324.367188 125.515625 319.335938 128.828125 316.390625 C 129.503906 315.839844 179.308594 270.207031 179.308594 188.140625 C 179.308594 183.722656 182.863281 180.164062 187.28125 180.164062 C 191.699219 180.164062 195.253906 183.722656 195.253906 188.140625 C 195.253906 277.8125 141.707031 326.328125 139.441406 328.351562 C 137.96875 329.703125 136.066406 330.378906 134.164062 330.378906 Z M 134.164062 330.378906 " fill-opacity="1" fill-rule="nonzero"/></svg>